# xmcd CD database file
#
# Track frame offsets:
#	150
#	16460
#	36112
#	50307
#	66065
#	100765
#	116455
#	132237
#	150730
#	179015
#
# Disc length: 2604 seconds
#
# Revision: 0
# Processed by: cddbd v1.5.1PL0 Copyright (c) Steve Scherf et al.
# Submitted via: CDex 1.51
#
DISCID=7f0a2a0a
DTITLE=Patrick Ki and Robert Cory - Peace on Earth
DYEAR=2000
DGENRE=New Age
TTITLE0=The Christmas Song
TTITLE1=Little Drummer Boy
TTITLE2=The First Noel
TTITLE3=Angels We Have Heard on High
TTITLE4=Canon in D Major
TTITLE5=Have Yourself a Merry Little Christmas
TTITLE6=The Joy of Man's Desiring
TTITLE7=Feliz Navidad
TTITLE8=O Holy Night
TTITLE9=White Christmas
EXTD=YEAR: 2000
EXTT0=
EXTT1=
EXTT2=
EXTT3=
EXTT4=
EXTT5=
EXTT6=
EXTT7=
EXTT8=
EXTT9=
PLAYORDER=
